<svg width="320" height="60" viewBox="0 0 320 60" fill="none" xmlns="http://www.w3.org/2000/svg">
<path d="M159.173 17.5824V53.5322C159.173 54.1722 158.668 54.6842 158.049 54.6842H154.102C153.477 54.6842 152.978 54.1664 152.978 53.5322V17.5824C152.978 16.9424 153.483 16.4304 154.102 16.4304H158.049C158.668 16.4304 159.173 16.9482 159.173 17.5824Z" fill="#F46B5D"/>
<path d="M172.291 22.1202L177.715 58.3551C177.783 58.7915 177.488 59.1987 177.062 59.2685L172.479 59.99C172.053 60.0598 171.655 59.7572 171.587 59.3209L166.164 23.086C166.096 22.6496 166.391 22.2423 166.817 22.1725L171.4 21.4511C171.826 21.3813 172.229 21.678 172.291 22.1202Z" fill="#F1562A"/>
<path d="M75.5973 53.2703C72.4626 53.2703 69.6061 52.4441 67.0279 50.7918C64.4497 49.1394 62.3939 46.9228 60.8606 44.1417C59.3273 41.3607 58.5607 38.2829 58.5607 34.9084C58.5607 32.3485 59.0036 29.9573 59.8895 27.7348C60.7754 25.5123 61.9964 23.5574 63.5524 21.8702C65.1084 20.1829 66.92 18.8622 68.9871 17.9081C71.0542 16.9539 73.2576 16.4768 75.5973 16.4768C78.1642 16.4768 80.5209 17.0063 82.6675 18.0651C84.8141 19.124 86.6541 20.596 88.1874 22.4811C89.7207 24.3661 90.8678 26.5537 91.6288 29.0438C92.2876 31.2023 92.5829 33.4888 92.5204 35.9033C92.5033 36.5317 92.0093 37.0379 91.396 37.0379H66.017C65.3015 37.0379 64.7506 37.7244 64.921 38.4342C65.2617 39.8538 65.8069 41.1512 66.5679 42.3265C67.5674 43.8741 68.8451 45.1017 70.4011 46.0093C71.9572 46.9169 73.6892 47.3824 75.5973 47.4057C77.6417 47.4057 79.493 46.8646 81.1513 45.7824C82.6051 44.8341 83.8147 43.5774 84.7801 42.0123C85.0299 41.605 85.5126 41.413 85.9726 41.5236L89.6185 42.3963C90.334 42.5708 90.7088 43.397 90.3567 44.0603C89.0222 46.5562 87.1822 48.6449 84.8369 50.3205C82.0826 52.287 79.0046 53.2703 75.5973 53.2703ZM65.8296 32.4299H85.3991C86.1033 32.4299 86.6484 31.7725 86.5064 31.0685C86.2111 29.6373 85.666 28.3049 84.8709 27.0715C83.826 25.4541 82.4972 24.1567 80.8844 23.1792C79.2716 22.2018 77.5111 21.7131 75.603 21.7131C73.6949 21.7131 71.9458 22.1901 70.3557 23.1443C68.7656 24.0985 67.4538 25.3843 66.4202 27.0017C65.6309 28.2351 65.0687 29.5849 64.7393 31.0452C64.5689 31.7551 65.1141 32.4299 65.8296 32.4299Z" fill="#1D878C"/>
<path d="M97.9152 51.3152V4.53797C97.9152 3.96199 98.3695 3.49072 98.9374 3.49072H124.873C125.435 3.49072 125.895 3.95617 125.895 4.53797V8.3139C125.895 8.88989 125.441 9.36115 124.873 9.36115H104.662C104.099 9.36115 103.639 9.8266 103.639 10.4084V22.2133C103.639 22.7893 104.094 23.2605 104.662 23.2605H121.602C122.164 23.2605 122.624 23.726 122.624 24.3078V28.0837C122.624 28.6597 122.17 29.1309 121.602 29.1309H104.662C104.099 29.1309 103.639 29.5964 103.639 30.1782V51.3152C103.639 51.8912 103.185 52.3625 102.617 52.3625H98.9317C98.3695 52.3625 97.9152 51.897 97.9152 51.3152Z" fill="#FB8F67"/>
<path d="M129.331 51.1118V18.7051C129.331 18.0128 129.876 17.4542 130.552 17.4542H133.84C134.516 17.4542 135.061 18.0128 135.061 18.7051C135.061 19.7815 136.282 20.3284 137.088 19.6418C137.855 18.9844 138.701 18.4142 139.627 17.9255C141.467 16.9597 143.466 16.4768 145.624 16.4768C146.43 16.4768 147.225 16.5408 147.997 16.6746C148.758 16.8026 149.19 17.6404 148.9 18.3735L147.526 21.8527C147.304 22.4171 146.714 22.7254 146.129 22.5974C145.544 22.4752 144.965 22.4112 144.403 22.4112C142.699 22.4112 141.137 22.836 139.717 23.6854C138.298 24.5348 137.168 25.681 136.327 27.1239C135.487 28.5668 135.066 30.1725 135.066 31.9412V51.1118C135.066 51.8041 134.521 52.3626 133.846 52.3626H130.557C129.876 52.3626 129.331 51.8041 129.331 51.1118Z" fill="#FB8F67"/>
<path d="M196.239 53.2703C193.105 53.2703 190.248 52.4441 187.67 50.7918C185.092 49.1394 183.036 46.9228 181.503 44.1417C179.969 41.3607 179.203 38.2829 179.203 34.9084C179.203 32.3485 179.646 29.9573 180.532 27.7348C181.418 25.5123 182.638 23.5574 184.194 21.8702C185.75 20.1829 187.562 18.8622 189.629 17.9081C191.696 16.9539 193.9 16.4768 196.239 16.4768C198.806 16.4768 201.163 17.0063 203.31 18.0651C205.456 19.124 207.296 20.596 208.829 22.4811C210.363 24.3661 211.51 26.5537 212.271 29.0438C212.935 31.214 213.231 33.5121 213.162 35.9499C213.145 36.555 212.668 37.0379 212.078 37.0379H186.608C185.915 37.0379 185.387 37.6953 185.552 38.3876C185.892 39.8305 186.443 41.1396 187.21 42.3265C188.209 43.8741 189.487 45.1017 191.043 46.0093C192.599 46.9169 194.331 47.3824 196.239 47.4057C198.284 47.4057 200.135 46.8646 201.793 45.7824C203.253 44.8282 204.468 43.5657 205.439 41.9832C205.678 41.5934 206.143 41.4072 206.586 41.5119L210.312 42.4021C211.005 42.565 211.362 43.3679 211.022 44.0021C209.681 46.5213 207.836 48.6274 205.473 50.3147C202.725 52.287 199.647 53.2703 196.239 53.2703ZM186.421 32.4299H206.087C206.762 32.4299 207.291 31.7958 207.154 31.1209C206.865 29.6722 206.314 28.3224 205.507 27.0715C204.462 25.4541 203.134 24.1567 201.521 23.1792C199.908 22.2018 198.148 21.7131 196.239 21.7131C194.331 21.7131 192.582 22.1901 190.992 23.1443C189.402 24.0985 188.09 25.3843 187.057 27.0017C186.256 28.2526 185.694 29.614 185.364 31.0918C185.211 31.7783 185.739 32.4299 186.421 32.4299Z" fill="#FB8F67"/>
<path d="M249.019 30.6496V51.1118C249.019 51.8041 248.474 52.3626 247.798 52.3626H244.51C243.834 52.3626 243.289 51.8041 243.289 51.1118V31.9412C243.289 30.1725 242.869 28.5668 242.028 27.1239C241.188 25.681 240.063 24.5348 238.655 23.6854C237.247 22.836 235.679 22.4112 233.953 22.4112C232.249 22.4112 230.688 22.836 229.268 23.6854C227.848 24.5348 226.718 25.681 225.878 27.1239C225.037 28.5668 224.617 30.1725 224.617 31.9412V51.1118C224.617 51.8041 224.072 52.3626 223.396 52.3626H220.108C219.432 52.3626 218.887 51.8041 218.887 51.1118V18.7051C218.887 18.0128 219.432 17.4542 220.108 17.4542H223.396C224.072 17.4542 224.617 18.0128 224.617 18.7051C224.617 19.7815 225.838 20.3284 226.644 19.6418C227.411 18.9844 228.257 18.4142 229.183 17.9255C231.023 16.9597 233.022 16.4768 235.18 16.4768C237.724 16.4768 240.046 17.111 242.148 18.3793C244.249 19.6477 245.918 21.3523 247.156 23.4934C248.4 25.6344 249.019 28.0199 249.019 30.6496Z" fill="#FB8F67"/>
<path d="M284.086 0H286.801C287.63 0 288.306 0.69235 288.306 1.54179V50.8208C288.306 51.6703 287.63 52.3626 286.801 52.3626H284.086C283.257 52.3626 282.581 51.6703 282.581 50.8208C282.581 49.4768 281.014 48.7729 280.06 49.6979C279.407 50.3263 278.691 50.8848 277.913 51.3852C275.96 52.6419 273.665 53.2702 271.03 53.2702C268.554 53.2702 266.237 52.7931 264.08 51.839C261.922 50.8848 260.019 49.5641 258.372 47.8769C256.725 46.1896 255.436 44.2406 254.505 42.0297C253.574 39.8189 253.108 37.4451 253.108 34.9084C253.108 32.3717 253.574 29.9921 254.505 27.7696C255.436 25.5471 256.725 23.5923 258.372 21.905C260.019 20.2178 261.922 18.8971 264.08 17.9429C266.237 16.9888 268.554 16.5117 271.03 16.5117C273.665 16.5117 275.96 17.14 277.913 18.3967C278.691 18.8971 279.407 19.4614 280.06 20.084C281.02 21.0032 282.581 20.3051 282.581 18.9611V1.54179C282.581 0.69235 283.257 0 284.086 0ZM271.099 47.5802C273.347 47.5802 275.295 47.0158 276.942 45.8871C278.589 44.7584 279.861 43.2282 280.758 41.2966C281.656 39.365 282.104 37.2356 282.104 34.9084C282.104 32.5346 281.65 30.3878 280.741 28.4678C279.833 26.5478 278.555 25.0235 276.908 23.8948C275.261 22.7661 273.325 22.2017 271.099 22.2017C268.85 22.2017 266.811 22.7719 264.982 23.9123C263.154 25.0526 261.694 26.5828 260.604 28.5027C259.514 30.4227 258.969 32.5579 258.969 34.9084C258.969 37.2589 259.525 39.3941 260.638 41.3141C261.751 43.2341 263.228 44.7584 265.068 45.8871C266.908 47.0158 268.918 47.5802 271.099 47.5802Z" fill="#FB8F67"/>
<path d="M306.875 53.0259C305.035 52.9561 303.247 52.6012 301.509 51.9612C299.771 51.3212 298.249 50.4485 296.943 49.343C296.08 48.6158 295.376 47.8071 294.825 46.9344C294.376 46.2246 294.683 45.2646 295.438 44.933L297.925 43.8333C298.505 43.5773 299.169 43.781 299.55 44.293C299.885 44.741 300.316 45.1773 300.844 45.5904C301.73 46.2886 302.753 46.8471 303.911 47.266C305.07 47.6849 306.239 47.8944 307.421 47.8944C308.67 47.8944 309.84 47.6965 310.93 47.3009C312.02 46.9053 312.912 46.3177 313.605 45.538C314.298 44.7584 314.644 43.8217 314.644 42.7279C314.644 41.5643 314.264 40.6509 313.503 39.9876C312.742 39.3243 311.788 38.8007 310.641 38.4167C309.493 38.0327 308.329 37.6662 307.148 37.3171C304.808 36.712 302.718 35.9848 300.879 35.1353C299.039 34.2859 297.59 33.2037 296.534 31.8888C295.478 30.574 294.95 28.8925 294.95 26.8446C294.95 24.6803 295.535 22.8068 296.705 21.2243C297.874 19.6418 299.413 18.42 301.321 17.5589C303.23 16.6979 305.274 16.2673 307.455 16.2673C310.203 16.2673 312.713 16.8724 314.985 18.0826C316.751 19.0251 318.171 20.2294 319.238 21.6898C319.727 22.3589 319.551 23.313 318.852 23.7319L316.598 25.0817C316.007 25.4366 315.257 25.2737 314.843 24.721C314.525 24.2963 314.144 23.9065 313.696 23.5457C312.901 22.9058 311.992 22.3996 310.97 22.0272C309.948 21.6549 308.903 21.4571 307.835 21.4338C306.518 21.3872 305.285 21.5618 304.138 21.9574C302.991 22.353 302.071 22.9523 301.378 23.7552C300.685 24.5581 300.339 25.553 300.339 26.7399C300.339 27.9035 300.708 28.7878 301.446 29.3929C302.185 29.998 303.15 30.4809 304.343 30.8416C305.535 31.2023 306.836 31.6154 308.244 32.0808C310.311 32.7557 312.242 33.5354 314.036 34.4197C315.831 35.3041 317.279 36.4095 318.381 37.736C319.483 39.0625 320.022 40.7032 319.999 42.6581C319.999 44.7991 319.375 46.6667 318.125 48.2609C316.876 49.855 315.257 51.071 313.27 51.9088C311.277 52.7466 309.147 53.119 306.875 53.0259Z" fill="#FB8F67"/>
<path d="M153.5 11.427C152.569 10.723 152.012 9.78047 151.831 8.58195C151.649 7.38343 151.905 6.30709 152.586 5.35293C153.154 4.56167 153.881 4.03804 154.778 3.77623C156.175 3.36897 157.725 3.7355 158.787 4.75948C159.474 5.42274 159.895 6.26636 160.048 7.29034C160.201 8.31432 160.048 9.25103 159.582 10.0947C158.872 11.3921 157.504 12.2241 156.05 12.259C155.124 12.2881 154.273 12.0088 153.5 11.427Z" fill="#F46B5D"/>
<path d="M164.358 16.7156C163.54 15.8778 163.131 14.8538 163.131 13.6437C163.131 12.4335 163.54 11.4095 164.358 10.5717C165.034 9.87936 165.835 9.4721 166.755 9.35573C168.197 9.16956 169.674 9.77463 170.571 10.9499C171.15 11.7121 171.445 12.6139 171.445 13.6495C171.445 14.6851 171.156 15.5869 170.571 16.3491C169.679 17.5185 168.197 18.1294 166.76 17.9432C165.835 17.8152 165.034 17.4138 164.358 16.7156Z" fill="#F1562A"/>
<path d="M58.3449 4.75226L44.2342 51.9667C44.1397 52.2857 43.8729 52.4964 43.5726 52.4964H39.514C39.2138 52.4964 38.9469 52.28 38.8524 51.961L29.5509 25.0757C29.4286 24.7283 28.9504 24.7283 28.8281 25.0757L19.5266 51.961C19.4321 52.28 19.1652 52.4964 18.8594 52.4964H14.8064C14.5061 52.4964 14.2393 52.2857 14.1448 51.9667L0.034054 4.75226C-0.1105 4.2567 0.223086 3.74976 0.695667 3.74976H5.27692C5.57715 3.74976 5.84401 3.96621 5.93853 4.27949L16.3575 40.774C16.4632 41.1385 16.958 41.1556 17.0859 40.7968L27.6216 11.5191C27.7106 11.2002 27.9775 10.9837 28.2833 10.9837H30.1069C30.4126 10.9837 30.6795 11.2002 30.7685 11.5191L40.7649 40.2386C40.8873 40.5917 41.3821 40.5803 41.4877 40.2215L52.4405 4.27949C52.535 3.96621 52.8018 3.74976 53.1021 3.74976H57.6833C58.1559 3.74976 58.4895 4.2567 58.3449 4.75226Z" fill="#1D878C"/>
</svg>
