<svg width="375" height="70" viewBox="0 0 375 70" fill="none" xmlns="http://www.w3.org/2000/svg">
<path d="M186.531 20.5124V62.4539C186.531 63.2005 185.939 63.7978 185.214 63.7978H180.588C179.856 63.7978 179.271 63.1937 179.271 62.4539V20.5124C179.271 19.7658 179.863 19.1685 180.588 19.1685H185.214C185.939 19.1685 186.531 19.7726 186.531 20.5124Z" fill="white"/>
<path d="M201.904 25.8071L208.26 68.0812C208.34 68.5902 207.993 69.0654 207.494 69.1468L202.124 69.9885C201.625 70.07 201.159 69.717 201.079 69.2079L194.724 26.9339C194.644 26.4248 194.99 25.9497 195.489 25.8682L200.859 25.0265C201.358 24.9451 201.831 25.2912 201.904 25.8071Z" fill="white"/>
<path d="M88.5907 62.1488C84.9171 62.1488 81.5697 61.1849 78.5484 59.2572C75.527 57.3295 73.1179 54.7434 71.3211 51.4988C69.5243 48.2543 68.6259 44.6636 68.6259 40.7267C68.6259 37.7401 69.1449 34.9503 70.1831 32.3574C71.2213 29.7645 72.6521 27.4838 74.4755 25.5154C76.299 23.5469 78.4219 22.0061 80.8443 20.8929C83.2667 19.7797 85.8488 19.2231 88.5907 19.2231C91.5987 19.2231 94.3605 19.8408 96.8761 21.0762C99.3916 22.3116 101.548 24.0289 103.345 26.2281C105.142 28.4273 106.486 30.9795 107.378 33.8847C108.15 36.4029 108.496 39.0705 108.422 41.8874C108.402 42.6205 107.823 43.211 107.105 43.211H77.3638C76.5253 43.211 75.8797 44.012 76.0794 44.8401C76.4787 46.4963 77.1176 48.0099 78.0093 49.3811C79.1806 51.1866 80.6779 52.6188 82.5014 53.6777C84.3249 54.7366 86.3546 55.2796 88.5907 55.3068C90.9865 55.3068 93.156 54.6755 95.0992 53.413C96.8029 52.3066 98.2204 50.8404 99.3517 49.0145C99.6445 48.5394 100.21 48.3154 100.749 48.4444L105.022 49.4625C105.86 49.6662 106.299 50.63 105.887 51.4038C104.323 54.3158 102.167 56.7526 99.4183 58.7074C96.1906 61.0017 92.5836 62.1488 88.5907 62.1488ZM77.1442 37.8351H100.077C100.902 37.8351 101.541 37.0681 101.375 36.2468C101.029 34.577 100.39 33.0226 99.4582 31.5836C98.2337 29.6966 96.6764 28.183 94.7864 27.0426C92.8964 25.9023 90.8334 25.3321 88.5973 25.3321C86.3613 25.3321 84.3115 25.8887 82.4482 27.0019C80.5848 28.1151 79.0475 29.6152 77.8363 31.5022C76.9113 32.9412 76.2524 34.5159 75.8664 36.2196C75.6668 37.0477 76.3057 37.8351 77.1442 37.8351Z" fill="white"/>
<path d="M114.744 59.868V5.29455C114.744 4.62256 115.277 4.07275 115.942 4.07275H146.335C146.994 4.07275 147.533 4.61577 147.533 5.29455V9.69979C147.533 10.3718 147.001 10.9216 146.335 10.9216H122.65C121.991 10.9216 121.452 11.4646 121.452 12.1434V25.9157C121.452 26.5877 121.985 27.1375 122.65 27.1375H142.502C143.161 27.1375 143.7 27.6805 143.7 28.3593V32.7645C143.7 33.4365 143.168 33.9863 142.502 33.9863H122.65C121.991 33.9863 121.452 34.5293 121.452 35.2081V59.868C121.452 60.54 120.92 61.0898 120.255 61.0898H115.936C115.277 61.0898 114.744 60.5467 114.744 59.868Z" fill="white"/>
<path d="M151.56 59.6306V21.8228C151.56 21.0151 152.198 20.3635 152.99 20.3635H156.844C157.636 20.3635 158.274 21.0151 158.274 21.8228C158.274 23.0786 159.705 23.7166 160.65 22.9157C161.549 22.1487 162.54 21.4835 163.625 20.9133C165.781 19.7865 168.124 19.2231 170.653 19.2231C171.598 19.2231 172.529 19.2978 173.434 19.4539C174.326 19.6033 174.832 20.5807 174.492 21.4359L172.882 25.495C172.622 26.1534 171.93 26.5132 171.245 26.3638C170.559 26.2213 169.881 26.1466 169.222 26.1466C167.225 26.1466 165.395 26.6421 163.731 27.6332C162.068 28.6242 160.743 29.9613 159.758 31.6447C158.774 33.3281 158.281 35.2015 158.281 37.265V59.6306C158.281 60.4383 157.642 61.0899 156.85 61.0899H152.997C152.198 61.0899 151.56 60.4383 151.56 59.6306Z" fill="white"/>
<path d="M229.968 62.1488C226.295 62.1488 222.947 61.1849 219.926 59.2572C216.904 57.3295 214.495 54.7434 212.699 51.4988C210.902 48.2543 210.003 44.6636 210.003 40.7267C210.003 37.7401 210.522 34.9503 211.561 32.3574C212.599 29.7645 214.03 27.4838 215.853 25.5154C217.676 23.5469 219.799 22.0061 222.222 20.8929C224.644 19.7797 227.226 19.2231 229.968 19.2231C232.976 19.2231 235.738 19.8408 238.254 21.0762C240.769 22.3116 242.925 24.0289 244.722 26.2281C246.519 28.4273 247.863 30.9795 248.755 33.8847C249.534 36.4165 249.88 39.0976 249.8 41.9417C249.78 42.6476 249.221 43.211 248.529 43.211H218.681C217.869 43.211 217.251 43.978 217.444 44.7858C217.843 46.4691 218.488 47.9964 219.387 49.3811C220.558 51.1866 222.055 52.6188 223.879 53.6777C225.702 54.7366 227.732 55.2796 229.968 55.3068C232.364 55.3068 234.533 54.6755 236.477 53.413C238.187 52.2998 239.611 50.8269 240.749 48.9806C241.029 48.5258 241.574 48.3086 242.093 48.4308L246.459 49.4693C247.271 49.6594 247.69 50.5961 247.291 51.3359C245.72 54.275 243.557 56.7322 240.789 58.7006C237.568 61.0017 233.961 62.1488 229.968 62.1488ZM218.462 37.8351H241.508C242.3 37.8351 242.919 37.0953 242.759 36.3079C242.42 34.6177 241.774 33.043 240.829 31.5836C239.604 29.6966 238.047 28.183 236.157 27.0426C234.267 25.9023 232.204 25.3321 229.968 25.3321C227.732 25.3321 225.682 25.8887 223.819 27.0019C221.956 28.1151 220.418 29.6152 219.207 31.5022C218.269 32.9615 217.61 34.5499 217.224 36.2739C217.044 37.0749 217.663 37.8351 218.462 37.8351Z" fill="white"/>
<path d="M291.819 35.7581V59.6306C291.819 60.4383 291.18 61.0899 290.388 61.0899H286.535C285.743 61.0899 285.104 60.4383 285.104 59.6306V37.265C285.104 35.2015 284.612 33.3281 283.627 31.6447C282.642 29.9613 281.324 28.6242 279.674 27.6332C278.023 26.6421 276.187 26.1466 274.164 26.1466C272.167 26.1466 270.337 26.6421 268.673 27.6332C267.01 28.6242 265.685 29.9613 264.7 31.6447C263.715 33.3281 263.223 35.2015 263.223 37.265V59.6306C263.223 60.4383 262.584 61.0899 261.792 61.0899H257.939C257.147 61.0899 256.508 60.4383 256.508 59.6306V21.8228C256.508 21.0151 257.147 20.3635 257.939 20.3635H261.792C262.584 20.3635 263.223 21.0151 263.223 21.8228C263.223 23.0786 264.654 23.7166 265.599 22.9157C266.497 22.1487 267.489 21.4835 268.573 20.9133C270.73 19.7865 273.072 19.2231 275.601 19.2231C278.582 19.2231 281.304 19.963 283.767 21.4427C286.229 22.9225 288.186 24.9113 289.636 27.4092C291.094 29.907 291.819 32.69 291.819 35.7581Z" fill="white"/>
<path d="M332.913 0H336.095C337.066 0 337.858 0.807741 337.858 1.79875V59.2909C337.858 60.2819 337.066 61.0897 336.095 61.0897H332.913C331.942 61.0897 331.15 60.2819 331.15 59.2909C331.15 57.7229 329.313 56.9016 328.195 57.9809C327.43 58.7139 326.591 59.3656 325.68 59.9493C323.39 61.4155 320.702 62.1485 317.614 62.1485C314.712 62.1485 311.997 61.5919 309.468 60.4788C306.939 59.3656 304.71 57.8248 302.78 55.8563C300.85 53.8879 299.339 51.614 298.248 49.0346C297.156 46.4553 296.611 43.6859 296.611 40.7264C296.611 37.767 297.156 34.9908 298.248 32.3979C299.339 29.805 300.85 27.5243 302.78 25.5558C304.71 23.5874 306.939 22.0466 309.468 20.9334C311.997 19.8202 314.712 19.2636 317.614 19.2636C320.702 19.2636 323.39 19.9967 325.68 21.4628C326.591 22.0466 327.43 22.705 328.195 23.4313C329.32 24.5037 331.15 23.6892 331.15 22.1212V1.79875C331.15 0.807741 331.942 0 332.913 0ZM317.694 55.5101C320.329 55.5101 322.612 54.8517 324.542 53.5349C326.471 52.2181 327.962 50.4329 329.014 48.1794C330.065 45.9258 330.591 43.4415 330.591 40.7264C330.591 37.957 330.058 35.4524 328.994 33.2124C327.929 30.9725 326.432 29.1941 324.502 27.8772C322.572 26.5604 320.302 25.902 317.694 25.902C315.058 25.902 312.669 26.5672 310.526 27.8976C308.383 29.228 306.673 31.0132 305.395 33.2531C304.118 35.4931 303.479 37.9842 303.479 40.7264C303.479 43.4687 304.131 45.9598 305.435 48.1997C306.74 50.4397 308.47 52.2181 310.626 53.5349C312.782 54.8517 315.138 55.5101 317.694 55.5101Z" fill="white"/>
<path d="M359.62 61.8635C357.463 61.782 355.367 61.3679 353.331 60.6213C351.294 59.8746 349.511 58.8565 347.98 57.5668C346.969 56.7183 346.143 55.7748 345.498 54.7567C344.972 53.9286 345.332 52.8086 346.217 52.4217L349.132 51.1388C349.81 50.8402 350.589 51.0777 351.035 51.6751C351.427 52.1977 351.933 52.7068 352.552 53.1887C353.59 54.0033 354.788 54.6549 356.146 55.1436C357.503 55.6323 358.874 55.8767 360.259 55.8767C361.723 55.8767 363.094 55.6459 364.371 55.1843C365.649 54.7228 366.694 54.0372 367.506 53.1276C368.318 52.2181 368.724 51.1253 368.724 49.8492C368.724 48.4916 368.278 47.4259 367.386 46.6521C366.494 45.8783 365.376 45.2674 364.032 44.8194C362.688 44.3714 361.323 43.9438 359.939 43.5366C357.197 42.8306 354.748 41.9822 352.592 40.9912C350.436 40.0001 348.739 38.7376 347.501 37.2036C346.263 35.6696 345.644 33.7079 345.644 31.3186C345.644 28.7936 346.33 26.6079 347.701 24.7617C349.072 22.9154 350.875 21.49 353.111 20.4854C355.347 19.4808 357.743 18.9785 360.298 18.9785C363.519 18.9785 366.461 19.6844 369.123 21.0963C371.193 22.1959 372.856 23.601 374.107 25.3047C374.68 26.0853 374.474 27.1985 373.655 27.6872L371.013 29.2619C370.321 29.676 369.442 29.4859 368.957 28.8411C368.584 28.3456 368.138 27.8908 367.612 27.47C366.681 26.7233 365.616 26.1328 364.418 25.6984C363.22 25.264 361.996 25.0332 360.744 25.006C359.2 24.9517 357.756 25.1554 356.412 25.6169C355.068 26.0785 353.99 26.7776 353.178 27.7143C352.366 28.651 351.96 29.8117 351.96 31.1964C351.96 32.554 352.392 33.5857 353.258 34.2917C354.123 34.9976 355.254 35.561 356.652 35.9818C358.049 36.4026 359.573 36.8846 361.224 37.4276C363.646 38.215 365.909 39.1245 368.012 40.1563C370.115 41.188 371.812 42.4777 373.103 44.0253C374.394 45.5729 375.026 47.487 374.999 49.7677C374.999 52.2656 374.267 54.4445 372.803 56.3043C371.339 58.1641 369.442 59.5828 367.113 60.5602C364.777 61.5376 362.282 61.9721 359.62 61.8635Z" fill="white"/>
<path d="M179.883 13.3313C178.792 12.51 178.14 11.4104 177.927 10.0121C177.714 8.61384 178.013 7.3581 178.812 6.24492C179.477 5.32178 180.329 4.71089 181.381 4.40544C183.018 3.9303 184.834 4.35792 186.079 5.55257C186.884 6.32637 187.377 7.31059 187.556 8.50523C187.736 9.69987 187.556 10.7927 187.011 11.7769C186.179 13.2906 184.575 14.2612 182.871 14.302C181.786 14.3359 180.788 14.0101 179.883 13.3313Z" fill="white"/>
<path d="M192.607 19.5012C191.649 18.5238 191.17 17.3292 191.17 15.9173C191.17 14.5055 191.649 13.3108 192.607 12.3334C193.399 11.5256 194.337 11.0505 195.415 10.9147C197.106 10.6975 198.836 11.4035 199.888 12.7746C200.566 13.6638 200.912 14.7159 200.912 15.9241C200.912 17.1323 200.573 18.1844 199.888 19.0736C198.843 20.4379 197.106 21.1506 195.422 20.9334C194.337 20.7841 193.399 20.3158 192.607 19.5012Z" fill="white"/>
<path d="M68.373 5.54458L51.837 60.6281C51.7262 61.0002 51.4135 61.2461 51.0617 61.2461H46.3055C45.9536 61.2461 45.6409 60.9935 45.5301 60.6214L34.6299 29.2553C34.4866 28.8499 33.9263 28.8499 33.7829 29.2553L22.8827 60.6214C22.772 60.9935 22.4592 61.2461 22.1009 61.2461H17.3512C16.9994 61.2461 16.6866 61.0002 16.5759 60.6281L0.039907 5.54458C-0.129492 4.96644 0.261429 4.375 0.815234 4.375H6.18389C6.53572 4.375 6.84845 4.62752 6.95922 4.99302L19.169 47.5699C19.2928 47.9952 19.8727 48.0151 20.0225 47.5965L32.3691 13.4393C32.4734 13.0671 32.7861 12.8146 33.1444 12.8146H35.2815C35.6398 12.8146 35.9526 13.0671 36.0568 13.4393L47.7714 46.9452C47.9147 47.3573 48.4946 47.344 48.6184 46.9253L61.4537 4.99302C61.5644 4.62752 61.8772 4.375 62.229 4.375H67.5976C68.1514 4.375 68.5424 4.96644 68.373 5.54458Z" fill="white"/>
</svg>
